<svg width="307" height="211" viewBox="0 0 307 211" fill="none" xmlns="http://www.w3.org/2000/svg">
<path d="M167.786 139.856H112.313L97.2673 119.79V53.9661L112.313 33.4438H167.786L182.984 53.9661V119.79L167.786 139.856ZM168.85 58.6787L160.795 47.7334H119.304L111.25 58.6787V114.773L119.304 125.566H160.795L168.85 114.773V58.6787Z" fill="black"/>
<path d="M49.5454 107.476V139.856H35.7152V107.476H6.0791V46.0612L21.5811 33.4438L30.244 44.5411L20.2133 52.902V93.3386H35.7152V76.7687H49.5454V93.3386H75.534V107.476H49.5454ZM251.394 107.476V139.856H237.564V107.476H207.928V46.0612L223.43 33.4438L232.092 44.5411L222.062 52.902V93.3386H237.564V76.7687H251.394V93.3386H277.383V107.476H251.394Z" fill="#241C17"/>
<path d="M49.5455 107.476V106.26H48.3296V107.476H49.5455ZM49.5455 139.856V141.072H50.7613V139.856H49.5455ZM35.7153 139.856H34.4994V141.072H35.7153V139.856ZM35.7153 107.476H36.9311V106.26H35.7153V107.476ZM6.07912 107.476H4.86328V108.692H6.07912V107.476ZM6.07912 46.0612L5.31173 45.1179L4.86328 45.483V46.0612H6.07912ZM21.5811 33.4438L22.5394 32.6953L21.7759 31.7173L20.8137 32.5005L21.5811 33.4438ZM30.244 44.5411L31.0224 45.4753L31.9271 44.7211L31.2023 43.7926L30.244 44.5411ZM20.2133 52.902L19.4349 51.9678L18.9974 52.3324V52.902H20.2133ZM20.2133 93.3386H18.9974V94.5548H20.2133V93.3386ZM35.7153 93.3386V94.5548H36.9311V93.3386H35.7153ZM35.7153 76.7687V75.5526H34.4994V76.7687H35.7153ZM49.5455 76.7687H50.7613V75.5526H49.5455V76.7687ZM49.5455 93.3386H48.3296V94.5548H49.5455V93.3386ZM75.5341 93.3386H76.7499V92.1225H75.5341V93.3386ZM75.5341 107.476V108.692H76.7499V107.476H75.5341ZM48.3296 107.476V139.856H50.7613V107.476H48.3296ZM49.5455 138.64H35.7153V141.072H49.5455V138.64ZM36.9311 139.856V107.476H34.4994V139.856H36.9311ZM35.7153 106.26H6.07912V108.692H35.7153V106.26ZM7.29496 107.476V46.0612H4.86328V107.476H7.29496ZM6.8465 47.0045L22.3485 34.3871L20.8137 32.5005L5.31173 45.1179L6.8465 47.0045ZM20.6228 34.1923L29.2856 45.2895L31.2023 43.7926L22.5394 32.6953L20.6228 34.1923ZM29.4656 43.6068L19.4349 51.9678L20.9917 53.8363L31.0224 45.4753L29.4656 43.6068ZM18.9974 52.902V93.3386H21.4291V52.902H18.9974ZM20.2133 94.5548H35.7153V92.1225H20.2133V94.5548ZM36.9311 93.3386V76.7687H34.4994V93.3386H36.9311ZM35.7153 77.9849H49.5455V75.5526H35.7153V77.9849ZM48.3296 76.7687V93.3386H50.7613V76.7687H48.3296ZM49.5455 94.5548H75.5341V92.1225H49.5455V94.5548ZM74.3182 93.3386V107.476H76.7499V93.3386H74.3182ZM75.5341 106.26H49.5455V108.692H75.5341V106.26ZM251.394 107.476V106.26H250.178V107.476H251.394ZM251.394 139.856V141.072H252.61V139.856H251.394ZM237.564 139.856H236.348V141.072H237.564V139.856ZM237.564 107.476H238.78V106.26H237.564V107.476ZM207.928 107.476H206.712V108.692H207.928V107.476ZM207.928 46.0612L207.16 45.1179L206.712 45.483V46.0612H207.928ZM223.43 33.4438L224.388 32.6953L223.625 31.7173L222.662 32.5005L223.43 33.4438ZM232.093 44.5411L232.871 45.4753L233.776 44.7211L233.051 43.7926L232.093 44.5411ZM222.062 52.902L221.284 51.9678L220.846 52.3324V52.902H222.062ZM222.062 93.3386H220.846V94.5548H222.062V93.3386ZM237.564 93.3386V94.5548H238.78V93.3386H237.564ZM237.564 76.7687V75.5526H236.348V76.7687H237.564ZM251.394 76.7687H252.61V75.5526H251.394V76.7687ZM251.394 93.3386H250.178V94.5548H251.394V93.3386ZM277.383 93.3386H278.598V92.1225H277.383V93.3386ZM277.383 107.476V108.692H278.598V107.476H277.383ZM250.178 107.476V139.856H252.61V107.476H250.178ZM251.394 138.64H237.564V141.072H251.394V138.64ZM238.78 139.856V107.476H236.348V139.856H238.78ZM237.564 106.26H207.928V108.692H237.564V106.26ZM209.144 107.476V46.0612H206.712V107.476H209.144ZM208.695 47.0045L224.197 34.3871L222.662 32.5005L207.16 45.1179L208.695 47.0045ZM222.472 34.1923L231.134 45.2895L233.051 43.7926L224.388 32.6953L222.472 34.1923ZM231.314 43.6068L221.284 51.9678L222.841 53.8363L232.871 45.4753L231.314 43.6068ZM220.846 52.902V93.3386H223.278V52.902H220.846ZM222.062 94.5548H237.564V92.1225H222.062V94.5548ZM238.78 93.3386V76.7687H236.348V93.3386H238.78ZM237.564 77.9849H251.394V75.5526H237.564V77.9849ZM250.178 76.7687V93.3386H252.61V76.7687H250.178ZM251.394 94.5548H277.383V92.1225H251.394V94.5548ZM276.167 93.3386V107.476H278.598V93.3386H276.167ZM277.383 106.26H251.394V108.692H277.383V106.26Z" fill="#241C17"/>
<path d="M21.2285 200.663L14.8028 174.911H10.1644L7.86643 177.933V200.62H3.95142V176.571L8.16431 170.91H17.9093L24.2924 196.662H24.9733V170.867H28.8883V200.663H21.2285ZM47.9335 200.748H37.3799L32.699 197.258V183.807L37.3799 180.359H47.9335L52.6144 183.807V197.258L47.9335 200.748ZM48.6994 185.808L46.6143 184.233H38.6991L36.614 185.808V195.257L38.6991 196.832H46.6143L48.6994 195.257V185.808ZM64.4383 184.275V200.663H60.6084V184.275H56.0125V180.317H60.6084V170.91H64.4383V180.317H69.2044V184.275H64.4383ZM98.0582 184.318V200.663H94.2283V184.318H89.6324V180.317H94.2283V176.486L98.3135 170.867H102.824V174.826H100.186L98.0582 177.848V180.317H102.824V184.318H98.0582ZM121.032 200.748H110.479L105.798 197.258V183.807L110.479 180.359H121.032L125.713 183.807V197.258L121.032 200.748ZM121.798 185.808L119.713 184.233H111.798L109.713 185.808V195.257L111.798 196.832H119.713L121.798 195.257V185.808ZM144.261 200.62V199.003L142.261 200.663H133.792L129.111 197.173V180.317H133.026V194.789L135.069 196.747H142.176L144.261 194.789V180.317H148.133V200.62H144.261ZM167.543 200.663V185.808L165.458 184.233H158.394L156.309 185.808V200.62H152.394V180.359H156.309V181.977L158.138 180.359H166.734L171.458 183.807V200.663H167.543ZM191.207 200.62V199.428L189.59 200.663H179.164L174.866 197.045V183.892L179.164 180.317H189.76L191.207 181.594V170.995H195.122V200.62H191.207ZM191.207 186.787L188.951 184.275H180.568L178.781 185.765V195.172L180.568 196.662H189.122L191.207 194.661V186.787Z" fill="black"/>
<path d="M288.458 108.844V92.7549H300.331V108.844H288.458Z" fill="#FFDB4D"/>
<path d="M288.459 108.844H287.243V110.061H288.459V108.844ZM288.459 92.7549V91.5387H287.243V92.7549H288.459ZM300.331 92.7549H301.547V91.5387H300.331V92.7549ZM300.331 108.844V110.061H301.547V108.844H300.331ZM289.674 108.844V92.7549H287.243V108.844H289.674ZM288.459 93.971H300.331V91.5387H288.459V93.971ZM299.115 92.7549V108.844H301.547V92.7549H299.115ZM300.331 107.628H288.459V110.061H300.331V107.628Z" fill="#FFDB4D"/>
</svg>
