<svg width="409" height="281" viewBox="0 0 409 281" fill="none" xmlns="http://www.w3.org/2000/svg">
<path d="M223.533 186.254H149.629L129.584 159.53V71.8696L149.629 44.5389H223.533L243.78 71.8696V159.53L223.533 186.254ZM224.95 78.1455L214.219 63.5692H158.943L148.212 78.1455V152.849L158.943 167.223H214.219L224.95 152.849V78.1455Z" fill="black"/>
<path d="M66.007 143.132V186.254H47.5818V143.132H8.09912V61.3422L28.7516 44.5389L40.2927 59.3177L26.9293 70.4525V124.304H47.5818V102.237H66.007V124.304H100.63V143.132H66.007ZM334.919 143.132V186.254H316.494V143.132H277.011V61.3422L297.664 44.5389L309.205 59.3177L295.842 70.4525V124.304H316.494V102.237H334.919V124.304H369.543V143.132H334.919Z" fill="#241C17"/>
<path d="M66.0067 143.132V141.512H64.3869V143.132H66.0067ZM66.0067 186.254V187.873H67.6265V186.254H66.0067ZM47.5815 186.254H45.9617V187.873H47.5815V186.254ZM47.5815 143.132H49.2013V141.512H47.5815V143.132ZM8.09881 143.132H6.479V144.751H8.09881V143.132ZM8.09881 61.3422L7.07644 60.086L6.479 60.5721V61.3422H8.09881ZM28.7513 44.5389L30.028 43.5421L29.0109 42.2396L27.7289 43.2827L28.7513 44.5389ZM40.2924 59.3177L41.3294 60.5619L42.5347 59.5575L41.5691 58.3209L40.2924 59.3177ZM26.929 70.4524L25.892 69.2083L25.3092 69.6938V70.4524H26.929ZM26.929 124.304H25.3092V125.924H26.929V124.304ZM47.5815 124.304V125.924H49.2013V124.304H47.5815ZM47.5815 102.237V100.617H45.9617V102.237H47.5815ZM66.0067 102.237H67.6265V100.617H66.0067V102.237ZM66.0067 124.304H64.3869V125.924H66.0067V124.304ZM100.63 124.304H102.25V122.684H100.63V124.304ZM100.63 143.132V144.751H102.25V143.132H100.63ZM64.3869 143.132V186.254H67.6265V143.132H64.3869ZM66.0067 184.634H47.5815V187.873H66.0067V184.634ZM49.2013 186.254V143.132H45.9617V186.254H49.2013ZM47.5815 141.512H8.09881V144.751H47.5815V141.512ZM9.71861 143.132V61.3422H6.479V143.132H9.71861ZM9.12114 62.5985L29.7736 45.7951L27.7289 43.2827L7.07644 60.086L9.12114 62.5985ZM27.4746 45.5357L39.0156 60.3145L41.5691 58.3209L30.028 43.5421L27.4746 45.5357ZM39.2554 58.0735L25.892 69.2083L27.966 71.6966L41.3294 60.5619L39.2554 58.0735ZM25.3092 70.4524V124.304H28.5488V70.4524H25.3092ZM26.929 125.924H47.5815V122.684H26.929V125.924ZM49.2013 124.304V102.237H45.9617V124.304H49.2013ZM47.5815 103.857H66.0067V100.617H47.5815V103.857ZM64.3869 102.237V124.304H67.6265V102.237H64.3869ZM66.0067 125.924H100.63V122.684H66.0067V125.924ZM99.0102 124.304V143.132H102.25V124.304H99.0102ZM100.63 141.512H66.0067V144.751H100.63V141.512ZM334.919 143.132V141.512H333.299V143.132H334.919ZM334.919 186.254V187.873H336.539V186.254H334.919ZM316.494 186.254H314.874V187.873H316.494V186.254ZM316.494 143.132H318.114V141.512H316.494V143.132ZM277.011 143.132H275.391V144.751H277.011V143.132ZM277.011 61.3422L275.989 60.086L275.391 60.5721V61.3422H277.011ZM297.664 44.5389L298.941 43.5421L297.923 42.2396L296.641 43.2827L297.664 44.5389ZM309.205 59.3177L310.242 60.5619L311.447 59.5575L310.482 58.3209L309.205 59.3177ZM295.841 70.4524L294.805 69.2083L294.221 69.6938V70.4524H295.841ZM295.841 124.304H294.221V125.924H295.841V124.304ZM316.494 124.304V125.924H318.114V124.304H316.494ZM316.494 102.237V100.617H314.874V102.237H316.494ZM334.919 102.237H336.539V100.617H334.919V102.237ZM334.919 124.304H333.299V125.924H334.919V124.304ZM369.542 124.304H371.162V122.684H369.542V124.304ZM369.542 143.132V144.751H371.162V143.132H369.542ZM333.299 143.132V186.254H336.539V143.132H333.299ZM334.919 184.634H316.494V187.873H334.919V184.634ZM318.114 186.254V143.132H314.874V186.254H318.114ZM316.494 141.512H277.011V144.751H316.494V141.512ZM278.631 143.132V61.3422H275.391V143.132H278.631ZM278.034 62.5985L298.686 45.7951L296.641 43.2827L275.989 60.086L278.034 62.5985ZM296.387 45.5357L307.928 60.3145L310.482 58.3209L298.941 43.5421L296.387 45.5357ZM308.168 58.0735L294.805 69.2083L296.879 71.6966L310.242 60.5619L308.168 58.0735ZM294.221 70.4524V124.304H297.461V70.4524H294.221ZM295.841 125.924H316.494V122.684H295.841V125.924ZM318.114 124.304V102.237H314.874V124.304H318.114ZM316.494 103.857H334.919V100.617H316.494V103.857ZM333.299 102.237V124.304H336.539V102.237H333.299ZM334.919 125.924H369.542V122.684H334.919V125.924ZM367.922 124.304V143.132H371.162V124.304H367.922ZM369.542 141.512H334.919V144.751H369.542V141.512Z" fill="#241C17"/>
<path d="M28.2815 267.233L19.7209 232.938H13.5413L10.4799 236.963V267.177H5.26416V235.149L10.8768 227.61H23.8595L32.3634 261.905H33.2705V227.553H38.4863V267.233H28.2815ZM63.8591 267.347H49.7992L43.563 262.699V244.786L49.7992 240.194H63.8591L70.0954 244.786V262.699L63.8591 267.347ZM64.8796 247.45L62.1016 245.353H51.5567L48.7788 247.45V260.034L51.5567 262.132H62.1016L64.8796 260.034V247.45ZM85.8477 245.409V267.233H80.7452V245.409H74.6224V240.138H80.7452V227.61H85.8477V240.138H92.1973V245.409H85.8477ZM130.638 245.466V267.233H125.535V245.466H119.412V240.138H125.535V235.036L130.978 227.553H136.987V232.825H133.472L130.638 236.85V240.138H136.987V245.466H130.638ZM161.245 267.347H147.185L140.948 262.699V244.786L147.185 240.194H161.245L167.481 244.786V262.699L161.245 267.347ZM162.265 247.45L159.487 245.353H148.942L146.164 247.45V260.034L148.942 262.132H159.487L162.265 260.034V247.45ZM192.191 267.177V265.023L189.526 267.233H178.244L172.008 262.585V240.138H177.224V259.411L179.945 262.018H189.413L192.191 259.411V240.138H197.35V267.177H192.191ZM223.209 267.233V247.45L220.431 245.353H211.019L208.242 247.45V267.177H203.026V240.194H208.242V242.348L210.679 240.194H222.131L228.424 244.786V267.233H223.209ZM254.735 267.177V265.59L252.58 267.233H238.691L232.965 262.415V244.899L238.691 240.138H252.807L254.735 241.838V227.723H259.95V267.177H254.735ZM254.735 248.754L251.73 245.409H240.561L238.18 247.393V259.921L240.561 261.905H251.957L254.735 259.241V248.754Z" fill="black"/>
<path d="M384.298 144.954V123.527H400.115V144.954H384.298Z" fill="#FFDB4D"/>
<path d="M384.298 144.954H382.678V146.573H384.298V144.954ZM384.298 123.527V121.907H382.678V123.527H384.298ZM400.115 123.527H401.735V121.907H400.115V123.527ZM400.115 144.954V146.573H401.735V144.954H400.115ZM385.918 144.954V123.527H382.678V144.954H385.918ZM384.298 125.146H400.115V121.907H384.298V125.146ZM398.496 123.527V144.954H401.735V123.527H398.496ZM400.115 143.334H384.298V146.573H400.115V143.334Z" fill="#FFDB4D"/>
</svg>
