<svg width="505" height="347" viewBox="0 0 505 347" fill="none" xmlns="http://www.w3.org/2000/svg">
<path d="M276 230H184.75L160 197V88.75L184.75 55H276L301 88.75V197L276 230ZM277.75 96.5L264.5 78.5H196.25L183 96.5V188.75L196.25 206.5H264.5L277.75 188.75V96.5Z" fill="black"/>
<path d="M81.5 176.75V230H58.75V176.75H10V75.75L35.5 55L49.75 73.25L33.25 87V153.5H58.75V126.25H81.5V153.5H124.25V176.75H81.5ZM413.531 176.75V230H390.781V176.75H342.031V75.75L367.531 55L381.781 73.25L365.281 87V153.5H390.781V126.25H413.531V153.5H456.281V176.75H413.531Z" fill="#241C17"/>
<path d="M81.5 176.75V174.75H79.5V176.75H81.5ZM81.5 230V232H83.5V230H81.5ZM58.75 230H56.75V232H58.75V230ZM58.75 176.75H60.75V174.75H58.75V176.75ZM10 176.75H8V178.75H10V176.75ZM10 75.75L8.73767 74.1987L8 74.799V75.75H10ZM35.5 55L37.0764 53.7691L35.8205 52.1607L34.2377 53.4487L35.5 55ZM49.75 73.25L51.0304 74.7864L52.5187 73.5461L51.3264 72.0191L49.75 73.25ZM33.25 87L31.9696 85.4636L31.25 86.0632V87H33.25ZM33.25 153.5H31.25V155.5H33.25V153.5ZM58.75 153.5V155.5H60.75V153.5H58.75ZM58.75 126.25V124.25H56.75V126.25H58.75ZM81.5 126.25H83.5V124.25H81.5V126.25ZM81.5 153.5H79.5V155.5H81.5V153.5ZM124.25 153.5H126.25V151.5H124.25V153.5ZM124.25 176.75V178.75H126.25V176.75H124.25ZM79.5 176.75V230H83.5V176.75H79.5ZM81.5 228H58.75V232H81.5V228ZM60.75 230V176.75H56.75V230H60.75ZM58.75 174.75H10V178.75H58.75V174.75ZM12 176.75V75.75H8V176.75H12ZM11.2623 77.3013L36.7623 56.5513L34.2377 53.4487L8.73767 74.1987L11.2623 77.3013ZM33.9236 56.2309L48.1736 74.4809L51.3264 72.0191L37.0764 53.7691L33.9236 56.2309ZM48.4696 71.7135L31.9696 85.4636L34.5304 88.5364L51.0304 74.7864L48.4696 71.7135ZM31.25 87V153.5H35.25V87H31.25ZM33.25 155.5H58.75V151.5H33.25V155.5ZM60.75 153.5V126.25H56.75V153.5H60.75ZM58.75 128.25H81.5V124.25H58.75V128.25ZM79.5 126.25V153.5H83.5V126.25H79.5ZM81.5 155.5H124.25V151.5H81.5V155.5ZM122.25 153.5V176.75H126.25V153.5H122.25ZM124.25 174.75H81.5V178.75H124.25V174.75ZM413.531 176.75V174.75H411.531V176.75H413.531ZM413.531 230V232H415.531V230H413.531ZM390.781 230H388.781V232H390.781V230ZM390.781 176.75H392.781V174.75H390.781V176.75ZM342.031 176.75H340.031V178.75H342.031V176.75ZM342.031 75.75L340.769 74.1987L340.031 74.799V75.75H342.031ZM367.531 55L369.108 53.7691L367.852 52.1607L366.269 53.4487L367.531 55ZM381.781 73.25L383.062 74.7864L384.55 73.5461L383.358 72.0191L381.781 73.25ZM365.281 87L364.001 85.4636L363.281 86.0632V87H365.281ZM365.281 153.5H363.281V155.5H365.281V153.5ZM390.781 153.5V155.5H392.781V153.5H390.781ZM390.781 126.25V124.25H388.781V126.25H390.781ZM413.531 126.25H415.531V124.25H413.531V126.25ZM413.531 153.5H411.531V155.5H413.531V153.5ZM456.281 153.5H458.281V151.5H456.281V153.5ZM456.281 176.75V178.75H458.281V176.75H456.281ZM411.531 176.75V230H415.531V176.75H411.531ZM413.531 228H390.781V232H413.531V228ZM392.781 230V176.75H388.781V230H392.781ZM390.781 174.75H342.031V178.75H390.781V174.75ZM344.031 176.75V75.75H340.031V176.75H344.031ZM343.294 77.3013L368.794 56.5513L366.269 53.4487L340.769 74.1987L343.294 77.3013ZM365.955 56.2309L380.205 74.4809L383.358 72.0191L369.108 53.7691L365.955 56.2309ZM380.501 71.7135L364.001 85.4636L366.562 88.5364L383.062 74.7864L380.501 71.7135ZM363.281 87V153.5H367.281V87H363.281ZM365.281 155.5H390.781V151.5H365.281V155.5ZM392.781 153.5V126.25H388.781V153.5H392.781ZM390.781 128.25H413.531V124.25H390.781V128.25ZM411.531 126.25V153.5H415.531V126.25H411.531ZM413.531 155.5H456.281V151.5H413.531V155.5ZM454.281 153.5V176.75H458.281V153.5H454.281ZM456.281 174.75H413.531V178.75H456.281V174.75Z" fill="#241C17"/>
<path d="M34.92 330L24.35 287.65H16.72L12.94 292.62V329.93H6.5V290.38L13.43 281.07H29.46L39.96 323.42H41.08V281H47.52V330H34.92ZM78.8483 330.14H61.4883L53.7883 324.4V302.28L61.4883 296.61H78.8483L86.5483 302.28V324.4L78.8483 330.14ZM80.1083 305.57L76.6783 302.98H63.6583L60.2283 305.57V321.11L63.6583 323.7H76.6783L80.1083 321.11V305.57ZM105.998 303.05V330H99.6979V303.05H92.1379V296.54H99.6979V281.07H105.998V296.54H113.838V303.05H105.998ZM161.301 303.12V330H155.001V303.12H147.441V296.54H155.001V290.24L161.721 281H169.141V287.51H164.801L161.301 292.48V296.54H169.141V303.12H161.301ZM199.092 330.14H181.732L174.032 324.4V302.28L181.732 296.61H199.092L206.792 302.28V324.4L199.092 330.14ZM200.352 305.57L196.922 302.98H183.902L180.472 305.57V321.11L183.902 323.7H196.922L200.352 321.11V305.57ZM237.302 329.93V327.27L234.012 330H220.082L212.382 324.26V296.54H218.822V320.34L222.182 323.56H233.872L237.302 320.34V296.54H243.672V329.93H237.302ZM275.6 330V305.57L272.17 302.98H260.55L257.12 305.57V329.93H250.68V296.61H257.12V299.27L260.13 296.61H274.27L282.04 302.28V330H275.6ZM314.526 329.93V327.97L311.866 330H294.716L287.646 324.05V302.42L294.716 296.54H312.146L314.526 298.64V281.21H320.966V329.93H314.526ZM314.526 307.18L310.816 303.05H297.026L294.086 305.5V320.97L297.026 323.42H311.096L314.526 320.13V307.18Z" fill="black"/>
<path d="M474.5 179V152.54H494.03V179H474.5Z" fill="#FFDB4D"/>
<path d="M474.5 179H472.5V181H474.5V179ZM474.5 152.54V150.54H472.5V152.54H474.5ZM494.03 152.54H496.03V150.54H494.03V152.54ZM494.03 179V181H496.03V179H494.03ZM476.5 179V152.54H472.5V179H476.5ZM474.5 154.54H494.03V150.54H474.5V154.54ZM492.03 152.54V179H496.03V152.54H492.03ZM494.03 177H474.5V181H494.03V177Z" fill="#FFDB4D"/>
</svg>
