<svg width="185" height="127" viewBox="0 0 185 127" fill="none" xmlns="http://www.w3.org/2000/svg">
<path d="M101.109 84.1787H67.6806L58.6138 72.1009V32.482L67.6806 20.1297H101.109L110.267 32.482V72.1009L101.109 84.1787ZM101.75 35.3184L96.8959 28.7305H71.8935L67.0395 35.3184V69.0814L71.8935 75.5778H96.8959L101.75 69.0814V35.3184Z" fill="black"/>
<path d="M29.8564 64.6895V84.1787H21.5222V64.6895H3.66333V27.7241L13.0049 20.1297L18.2252 26.8091L12.1807 31.8415V56.1801H21.5222V46.2068H29.8564V56.1801H45.5173V64.6895H29.8564ZM151.492 64.6895V84.1787H143.157V64.6895H125.298V27.7241L134.64 20.1297L139.86 26.8091L133.816 31.8415V56.1801H143.157V46.2068H151.492V56.1801H167.152V64.6895H151.492Z" fill="#241C17"/>
<path d="M29.8564 64.6895V63.9575H29.1237V64.6895H29.8564ZM29.8564 84.1787V84.9107H30.5891V84.1787H29.8564ZM21.5222 84.1787H20.7896V84.9107H21.5222V84.1787ZM21.5222 64.6895H22.2549V63.9575H21.5222V64.6895ZM3.66334 64.6895H2.93066V65.4215H3.66334V64.6895ZM3.66334 27.7241L3.2009 27.1563L2.93066 27.376V27.7241H3.66334ZM13.0049 20.1297L13.5824 19.6792L13.1223 19.0905L12.5425 19.5619L13.0049 20.1297ZM18.2252 26.8091L18.6943 27.3714L19.2395 26.9174L18.8027 26.3586L18.2252 26.8091ZM12.1807 31.8415L11.7116 31.2792L11.448 31.4986V31.8415H12.1807ZM12.1807 56.1801H11.448V56.9121H12.1807V56.1801ZM21.5222 56.1801V56.9121H22.2549V56.1801H21.5222ZM21.5222 46.2068V45.4748H20.7896V46.2068H21.5222ZM29.8564 46.2068H30.5891V45.4748H29.8564V46.2068ZM29.8564 56.1801H29.1237V56.9121H29.8564V56.1801ZM45.5173 56.1801H46.25V55.4481H45.5173V56.1801ZM45.5173 64.6895V65.4215H46.25V64.6895H45.5173ZM29.1237 64.6895V84.1787H30.5891V64.6895H29.1237ZM29.8564 83.4467H21.5222V84.9107H29.8564V83.4467ZM22.2549 84.1787V64.6895H20.7896V84.1787H22.2549ZM21.5222 63.9575H3.66334V65.4215H21.5222V63.9575ZM4.39601 64.6895V27.7241H2.93066V64.6895H4.39601ZM4.12576 28.2918L13.4673 20.6974L12.5425 19.5619L3.2009 27.1563L4.12576 28.2918ZM12.4274 20.5802L17.6477 27.2596L18.8027 26.3586L13.5824 19.6792L12.4274 20.5802ZM17.7562 26.2467L11.7116 31.2792L12.6497 32.4038L18.6943 27.3714L17.7562 26.2467ZM11.448 31.8415V56.1801H12.9133V31.8415H11.448ZM12.1807 56.9121H21.5222V55.4481H12.1807V56.9121ZM22.2549 56.1801V46.2068H20.7896V56.1801H22.2549ZM21.5222 46.9388H29.8564V45.4748H21.5222V46.9388ZM29.1237 46.2068V56.1801H30.5891V46.2068H29.1237ZM29.8564 56.9121H45.5173V55.4481H29.8564V56.9121ZM44.7846 56.1801V64.6895H46.25V56.1801H44.7846ZM45.5173 63.9575H29.8564V65.4215H45.5173V63.9575ZM151.492 64.6895V63.9575H150.759V64.6895H151.492ZM151.492 84.1787V84.9107H152.224V84.1787H151.492ZM143.157 84.1787H142.425V84.9107H143.157V84.1787ZM143.157 64.6895H143.89V63.9575H143.157V64.6895ZM125.298 64.6895H124.566V65.4215H125.298V64.6895ZM125.298 27.7241L124.836 27.1563L124.566 27.376V27.7241H125.298ZM134.64 20.1297L135.218 19.6792L134.758 19.0905L134.178 19.5619L134.64 20.1297ZM139.86 26.8091L140.33 27.3714L140.875 26.9174L140.438 26.3586L139.86 26.8091ZM133.816 31.8415L133.347 31.2792L133.083 31.4986V31.8415H133.816ZM133.816 56.1801H133.083V56.9121H133.816V56.1801ZM143.157 56.1801V56.9121H143.89V56.1801H143.157ZM143.157 46.2068V45.4748H142.425V46.2068H143.157ZM151.492 46.2068H152.224V45.4748H151.492V46.2068ZM151.492 56.1801H150.759V56.9121H151.492V56.1801ZM167.152 56.1801H167.885V55.4481H167.152V56.1801ZM167.152 64.6895V65.4215H167.885V64.6895H167.152ZM150.759 64.6895V84.1787H152.224V64.6895H150.759ZM151.492 83.4467H143.157V84.9107H151.492V83.4467ZM143.89 84.1787V64.6895H142.425V84.1787H143.89ZM143.157 63.9575H125.298V65.4215H143.157V63.9575ZM126.031 64.6895V27.7241H124.566V64.6895H126.031ZM125.761 28.2918L135.103 20.6974L134.178 19.5619L124.836 27.1563L125.761 28.2918ZM134.063 20.5802L139.283 27.2596L140.438 26.3586L135.218 19.6792L134.063 20.5802ZM139.391 26.2467L133.347 31.2792L134.285 32.4038L140.33 27.3714L139.391 26.2467ZM133.083 31.8415V56.1801H134.548V31.8415H133.083ZM133.816 56.9121H143.157V55.4481H133.816V56.9121ZM143.89 56.1801V46.2068H142.425V56.1801H143.89ZM143.157 46.9388H151.492V45.4748H143.157V46.9388ZM150.759 46.2068V56.1801H152.224V46.2068H150.759ZM151.492 56.9121H167.152V55.4481H151.492V56.9121ZM166.42 56.1801V64.6895H167.885V56.1801H166.42ZM167.152 63.9575H151.492V65.4215H167.152V63.9575Z" fill="#241C17"/>
<path d="M12.7924 120.778L8.92021 105.278H6.12506L4.74031 107.097V120.752H2.3811V106.277L4.91982 102.87H10.7922L14.6387 118.37H15.049V102.844H17.4082V120.778H12.7924ZM28.8849 120.829H22.5253L19.7045 118.729V110.633L22.5253 108.558H28.8849L31.7057 110.633V118.729L28.8849 120.829ZM29.3465 111.837L28.09 110.889H23.3203L22.0637 111.837V117.524L23.3203 118.472H28.09L29.3465 117.524V111.837ZM38.8309 110.915V120.778H36.5229V110.915H33.7534V108.532H36.5229V102.87H38.8309V108.532H41.7029V110.915H38.8309ZM59.0904 110.94V120.778H56.7825V110.94H54.013V108.532H56.7825V106.226L59.2442 102.844H61.9625V105.227H60.3726L59.0904 107.046V108.532H61.9625V110.94H59.0904ZM72.9346 120.829H66.575L63.7542 118.729V110.633L66.575 108.558H72.9346L75.7554 110.633V118.729L72.9346 120.829ZM73.3962 111.837L72.1397 110.889H67.37L66.1134 111.837V117.524L67.37 118.472H72.1397L73.3962 117.524V111.837ZM86.9323 120.752V119.779L85.7271 120.778H80.624L77.8032 118.677V108.532H80.1624V117.243L81.3933 118.421H85.6758L86.9323 117.243V108.532H89.2659V120.752H86.9323ZM100.962 120.778V111.837L99.7058 110.889H95.4489L94.1924 111.837V120.752H91.8332V108.558H94.1924V109.531L95.2951 108.558H100.475L103.322 110.633V120.778H100.962ZM115.222 120.752V120.035L114.248 120.778H107.965L105.375 118.6V110.684L107.965 108.532H114.35L115.222 109.301V102.921H117.582V120.752H115.222ZM115.222 112.426L113.863 110.915H108.811L107.734 111.811V117.473L108.811 118.37H113.966L115.222 117.166V112.426Z" fill="black"/>
<path d="M173.827 65.513V55.8288H180.981V65.513H173.827Z" fill="#FFDB4D"/>
<path d="M173.827 65.513H173.094V66.245H173.827V65.513ZM173.827 55.8288V55.0968H173.094V55.8288H173.827ZM180.981 55.8288H181.714V55.0968H180.981V55.8288ZM180.981 65.513V66.245H181.714V65.513H180.981ZM174.559 65.513V55.8288H173.094V65.513H174.559ZM173.827 56.5607H180.981V55.0968H173.827V56.5607ZM180.249 55.8288V65.513H181.714V55.8288H180.249ZM180.981 64.781H173.827V66.245H180.981V64.781Z" fill="#FFDB4D"/>
</svg>
