<svg width="58" height="23" viewBox="0 0 58 23" fill="none" xmlns="http://www.w3.org/2000/svg">
<path d="M8.6 22.42C7.1 22.42 5.78 22.07 4.64 21.37C3.5 20.67 2.6 19.54 1.94 17.98C1.28 16.42 0.95 14.35 0.95 11.77C0.95 9.47 1.15 7.6 1.55 6.16C1.97 4.7 2.54 3.57 3.26 2.77C4 1.97 4.86 1.42 5.84 1.12C6.84 0.819999 7.92 0.669999 9.08 0.669999C9.56 0.669999 10.14 0.699999 10.82 0.76C11.52 0.819999 12.2 0.889999 12.86 0.969999C13.54 1.05 14.06 1.14 14.42 1.24L14.06 3.88C13.86 3.86 13.54 3.83 13.1 3.79C12.68 3.75 12.21 3.71 11.69 3.67C11.19 3.61 10.71 3.57 10.25 3.55C9.81 3.51 9.47 3.49 9.23 3.49C8.29 3.49 7.54 3.54 6.98 3.64C6.44 3.74 6.04 3.94 5.78 4.24C5.52 4.52 5.27 4.95 5.03 5.53C4.81 6.11 4.63 6.91 4.49 7.93C4.37 8.93 4.31 10.24 4.31 11.86C4.31 13.86 4.5 15.46 4.88 16.66C5.26 17.84 5.64 18.61 6.02 18.97C6.28 19.21 6.6 19.39 6.98 19.51C7.36 19.61 7.81 19.66 8.33 19.66C9.05 19.66 9.76 19.58 10.46 19.42C11.18 19.26 11.82 19.07 12.38 18.85C12.96 18.63 13.42 18.44 13.76 18.28C14.1 18.12 14.27 18.04 14.27 18.04L15.29 20.5C15.29 20.5 15.13 20.6 14.81 20.8C14.49 20.98 14.03 21.2 13.43 21.46C12.85 21.72 12.15 21.94 11.33 22.12C10.51 22.32 9.6 22.42 8.6 22.42ZM34.2641 22.42C32.7641 22.42 31.4441 22.07 30.3041 21.37C29.1641 20.67 28.2641 19.54 27.6041 17.98C26.9441 16.42 26.6141 14.35 26.6141 11.77C26.6141 9.47 26.8141 7.6 27.2141 6.16C27.6341 4.7 28.2041 3.57 28.9241 2.77C29.6641 1.97 30.5241 1.42 31.5041 1.12C32.5041 0.819999 33.5841 0.669999 34.7441 0.669999C35.2241 0.669999 35.8041 0.699999 36.4841 0.76C37.1841 0.819999 37.8641 0.889999 38.5241 0.969999C39.2041 1.05 39.7241 1.14 40.0841 1.24L39.7241 3.88C39.5241 3.86 39.2041 3.83 38.7641 3.79C38.3441 3.75 37.8741 3.71 37.3541 3.67C36.8541 3.61 36.3741 3.57 35.9141 3.55C35.4741 3.51 35.1341 3.49 34.8941 3.49C33.9541 3.49 33.2041 3.54 32.6441 3.64C32.1041 3.74 31.7041 3.94 31.4441 4.24C31.1841 4.52 30.9341 4.95 30.6941 5.53C30.4741 6.11 30.2941 6.91 30.1541 7.93C30.0341 8.93 29.9741 10.24 29.9741 11.86C29.9741 13.86 30.1641 15.46 30.5441 16.66C30.9241 17.84 31.3041 18.61 31.6841 18.97C31.9441 19.21 32.2641 19.39 32.6441 19.51C33.0241 19.61 33.4741 19.66 33.9941 19.66C34.7141 19.66 35.4241 19.58 36.1241 19.42C36.8441 19.26 37.4841 19.07 38.0441 18.85C38.6241 18.63 39.0841 18.44 39.4241 18.28C39.7641 18.12 39.9341 18.04 39.9341 18.04L40.9541 20.5C40.9541 20.5 40.7941 20.6 40.4741 20.8C40.1541 20.98 39.6941 21.2 39.0941 21.46C38.5141 21.72 37.8141 21.94 36.9941 22.12C36.1741 22.32 35.2641 22.42 34.2641 22.42ZM48.1473 22L48.2073 3.76L42.3573 3.85V1.09H57.1473V3.85L51.2373 3.76L51.2973 22H48.1473Z" fill="white"/>
<path d="M18.8532 22V18.91H22.5732V22H18.8532Z" fill="#FFDB4D"/>
</svg>
