<svg width="48" height="19" viewBox="0 0 48 19" fill="none" xmlns="http://www.w3.org/2000/svg">
<path d="M7 18.35C5.75 18.35 4.65 18.0583 3.7 17.475C2.75 16.8917 2 15.95 1.45 14.65C0.9 13.35 0.625 11.625 0.625 9.475C0.625 7.55833 0.791667 6 1.125 4.8C1.475 3.58333 1.95 2.64167 2.55 1.975C3.16667 1.30833 3.88333 0.849999 4.7 0.599999C5.53333 0.349999 6.43333 0.224999 7.4 0.224999C7.8 0.224999 8.28333 0.25 8.85 0.3C9.43333 0.349999 10 0.408332 10.55 0.474999C11.1167 0.541666 11.55 0.616666 11.85 0.699999L11.55 2.9C11.3833 2.88333 11.1167 2.85833 10.75 2.825C10.4 2.79167 10.0083 2.75833 9.575 2.725C9.15833 2.675 8.75833 2.64167 8.375 2.625C8.00833 2.59167 7.725 2.575 7.525 2.575C6.74167 2.575 6.11667 2.61667 5.65 2.7C5.2 2.78333 4.86667 2.95 4.65 3.2C4.43333 3.43333 4.225 3.79167 4.025 4.275C3.84167 4.75833 3.69167 5.425 3.575 6.275C3.475 7.10833 3.425 8.2 3.425 9.55C3.425 11.2167 3.58333 12.55 3.9 13.55C4.21667 14.5333 4.53333 15.175 4.85 15.475C5.06667 15.675 5.33333 15.825 5.65 15.925C5.96667 16.0083 6.34167 16.05 6.775 16.05C7.375 16.05 7.96667 15.9833 8.55 15.85C9.15 15.7167 9.68333 15.5583 10.15 15.375C10.6333 15.1917 11.0167 15.0333 11.3 14.9C11.5833 14.7667 11.725 14.7 11.725 14.7L12.575 16.75C12.575 16.75 12.4417 16.8333 12.175 17C11.9083 17.15 11.525 17.3333 11.025 17.55C10.5417 17.7667 9.95833 17.95 9.275 18.1C8.59167 18.2667 7.83333 18.35 7 18.35ZM28.3867 18.35C27.1367 18.35 26.0367 18.0583 25.0867 17.475C24.1367 16.8917 23.3867 15.95 22.8367 14.65C22.2867 13.35 22.0117 11.625 22.0117 9.475C22.0117 7.55833 22.1784 6 22.5117 4.8C22.8617 3.58333 23.3367 2.64167 23.9367 1.975C24.5534 1.30833 25.2701 0.849999 26.0867 0.599999C26.9201 0.349999 27.8201 0.224999 28.7867 0.224999C29.1867 0.224999 29.6701 0.25 30.2367 0.3C30.8201 0.349999 31.3867 0.408332 31.9367 0.474999C32.5034 0.541666 32.9367 0.616666 33.2367 0.699999L32.9367 2.9C32.7701 2.88333 32.5034 2.85833 32.1367 2.825C31.7867 2.79167 31.3951 2.75833 30.9617 2.725C30.5451 2.675 30.1451 2.64167 29.7617 2.625C29.3951 2.59167 29.1117 2.575 28.9117 2.575C28.1284 2.575 27.5034 2.61667 27.0367 2.7C26.5867 2.78333 26.2534 2.95 26.0367 3.2C25.8201 3.43333 25.6117 3.79167 25.4117 4.275C25.2284 4.75833 25.0784 5.425 24.9617 6.275C24.8617 7.10833 24.8117 8.2 24.8117 9.55C24.8117 11.2167 24.9701 12.55 25.2867 13.55C25.6034 14.5333 25.9201 15.175 26.2367 15.475C26.4534 15.675 26.7201 15.825 27.0367 15.925C27.3534 16.0083 27.7284 16.05 28.1617 16.05C28.7617 16.05 29.3534 15.9833 29.9367 15.85C30.5367 15.7167 31.0701 15.5583 31.5367 15.375C32.0201 15.1917 32.4034 15.0333 32.6867 14.9C32.9701 14.7667 33.1117 14.7 33.1117 14.7L33.9617 16.75C33.9617 16.75 33.8284 16.8333 33.5617 17C33.2951 17.15 32.9117 17.3333 32.4117 17.55C31.9284 17.7667 31.3451 17.95 30.6617 18.1C29.9784 18.2667 29.2201 18.35 28.3867 18.35ZM39.9561 18L40.0061 2.8L35.1311 2.875V0.574999H47.4561V2.875L42.5311 2.8L42.5811 18H39.9561Z" fill="black"/>
<path d="M15.5443 18V15.425H18.6443V18H15.5443Z" fill="#FFDB4D"/>
</svg>
